<?xml version="1.0" encoding="UTF-8"?>
<!DOCTYPE svg PUBLIC "-//W3C//DTD SVG 1.1//EN" "http://www.w3.org/Graphics/SVG/1.1/DTD/svg11.dtd">
<!-- Creator: CorelDRAW -->
<svg xmlns="http://www.w3.org/2000/svg" xml:space="preserve" width="210mm" height="297mm" version="1.1" style="shape-rendering:geometricPrecision; text-rendering:geometricPrecision; image-rendering:optimizeQuality; fill-rule:evenodd; clip-rule:evenodd"
viewBox="0 0 21000 29700"
 xmlns:xlink="http://www.w3.org/1999/xlink">
 <defs>
  <style type="text/css">
   <![CDATA[
    .str4 {stroke:#1D1819;stroke-width:28.22}
    .str3 {stroke:#1D1819;stroke-width:70.55}
    .str6 {stroke:#1D1819;stroke-width:17.63}
    .str0 {stroke:#332C2B;stroke-width:17.64}
    .str5 {stroke:#1D1819;stroke-width:17.64}
    .str1 {stroke:#1D1819;stroke-width:7.62}
    .str2 {stroke:#29C830;stroke-width:7.62}
    .str8 {stroke:#1D1819;stroke-width:42.33;stroke-linejoin:round}
    .str7 {stroke:#1D1819;stroke-width:70.55;stroke-linejoin:round}
    .fil0 {fill:none}
    .fil11 {fill:#FFF000}
    .fil15 {fill:#E62129}
    .fil1 {fill:#1D1819}
    .fil10 {fill:#22CD31}
    .fil2 {fill:#29C830}
    .fil14 {fill:#2BC525}
    .fil8 {fill:#2CBF30}
    .fil6 {fill:#2DC826}
    .fil13 {fill:#F61710}
    .fil9 {fill:#FBFFFE}
    .fil17 {fill:#FDFEF9}
    .fil12 {fill:#FDFFFE}
    .fil16 {fill:#FE1214}
    .fil5 {fill:#FFF7FC}
    .fil7 {fill:#FFFDFF}
    .fil4 {fill:#FFF000;fill-rule:nonzero}
    .fil3 {fill:#1D1819;fill-rule:nonzero}
   ]]>
  </style>
 </defs>
 <g id="Layer_x0020_1">
  <metadata id="CorelCorpID_0Corel-Layer"/>
  <g id="Kabupaten_x0020_Gowa.cdr">
   <rect class="fil0" x="-9500" y="-150" width="40000" height="30000"/>
   <g>
    <polygon class="fil1 str0" points="10500,2771 21965,10974 17712,24392 3281,24366 -965,10974 "/>
    <g>
     <path class="fil1" d="M10500 24366l0 0c362,419 408,953 1001,1309 440,253 1387,264 1870,1254l1236 0 -2220 -2563 5332 0 4246 -13392 -881 -656c454,-1708 -76,-2798 -1432,-3371 154,-4000 -5215,-2489 -7892,-4096 213,585 749,987 1461,1289 174,438 560,624 1018,725 168,282 429,444 765,512 271,300 596,499 990,569 740,779 2907,700 3497,1128 -28,555 -393,1017 -1035,1403l-7956 -5706 -7956 5706c-642,-386 -1007,-848 -1035,-1403 590,-428 2757,-349 3497,-1128 394,-70 719,-269 990,-569 336,-68 597,-230 765,-512 458,-101 844,-287 1018,-725 712,-302 1248,-704 1461,-1289 -2677,1607 -8046,96 -7892,4096 -1356,573 -1886,1663 -1432,3371l-881 656 4246 13392 5332 0 -2220 2563 1236 0c483,-990 1430,-1001 1870,-1254 593,-356 639,-890 1001,-1309zm0 -21595l0 21595 0 -21595z"/>
     <path id="1" class="fil0 str1" d="M10500 24366l0 0c362,419 408,953 1001,1309 440,253 1387,264 1870,1254l1236 0 -2220 -2563 5332 0 4246 -13392 -881 -656c454,-1708 -76,-2798 -1432,-3371 154,-4000 -5215,-2489 -7892,-4096 213,585 749,987 1461,1289 174,438 560,624 1018,725 168,282 429,444 765,512 271,300 596,499 990,569 740,779 2907,700 3497,1128 -28,555 -393,1017 -1035,1403l-7956 -5706 -7956 5706c-642,-386 -1007,-848 -1035,-1403 590,-428 2757,-349 3497,-1128 394,-70 719,-269 990,-569 336,-68 597,-230 765,-512 458,-101 844,-287 1018,-725 712,-302 1248,-704 1461,-1289 -2677,1607 -8046,96 -7892,4096 -1356,573 -1886,1663 -1432,3371l-881 656 4246 13392 5332 0 -2220 2563 1236 0c483,-990 1430,-1001 1870,-1254 593,-356 639,-890 1001,-1309zm0 -21595l0 21595"/>
    </g>
    <path class="fil2 str2" d="M11537 24460l699 0 2054 2327 -834 0c-615,-1179 -1785,-860 -2293,-1674 313,10 700,123 1024,115 18,-82 -22,-151 -112,-210 -238,59 -447,28 -647,-29 177,-40 367,-63 472,-192l-127 -187c-381,166 -587,122 -707,-26 237,0 425,-25 471,-124z"/>
    <g>
     <g>
      <path class="fil2 str3" d="M21058 10318c454,-1708 -76,-2798 -1432,-3371 154,-4000 -5215,-2489 -7892,-4096 213,585 749,987 1461,1289 174,438 560,624 1018,725 168,282 428,444 765,512 271,300 596,499 990,569 740,779 2907,700 3497,1128 -28,555 -393,1017 -1035,1403l2628 1841z"/>
      <path class="fil3 str1" d="M19523 8259c0,1 228,198 275,589 46,389 -13,483 -13,483l-131 -79c0,0 32,-49 -8,-386 -40,-333 -225,-492 -225,-492l102 -115z"/>
      <path class="fil3 str1" d="M19895 7918c168,174 303,511 376,850 74,348 83,705 -5,900l-139 -63c74,-165 62,-485 -6,-805 -68,-315 -189,-623 -336,-776l110 -106z"/>
      <path class="fil3 str1" d="M20109 7592c279,245 473,623 581,1030 119,450 135,938 47,1319l-149 -34c82,-358 67,-819 -46,-1246 -101,-379 -279,-730 -534,-954l101 -115z"/>
      <path class="fil0" d="M13127 4110c989,242 2598,47 3345,324"/>
      <path class="fil0" d="M14158 4852c891,40 1964,-255 2861,79"/>
      <path class="fil0" d="M14969 5393c891,41 2217,-278 3097,200"/>
      <path class="fil0" d="M15921 5934c892,40 2074,-94 2821,377"/>
     </g>
     <g>
      <path class="fil3" d="M13145 4036c465,114 1076,130 1667,145 655,16 1285,32 1686,181l-52 143c-379,-139 -996,-155 -1638,-172 -599,-15 -1218,-31 -1699,-148l36 -149z"/>
      <path class="fil3" d="M14161 4776c300,13 626,-12 958,-39 648,-50 1321,-103 1926,122l-53 143c-573,-213 -1229,-161 -1861,-112 -336,27 -665,52 -977,38l7 -152z"/>
      <path class="fil3" d="M14972 5317c264,12 570,-9 891,-30 761,-50 1605,-106 2239,239l-73 134c-595,-323 -1416,-269 -2156,-220 -325,22 -634,42 -907,30l6 -153z"/>
      <path class="fil3" d="M15925 5857c200,9 412,9 631,10 775,1 1629,2 2227,380l-82 129c-561,-354 -1391,-355 -2145,-356 -222,-1 -438,-1 -638,-10l7 -153z"/>
     </g>
    </g>
    <path class="fil2 str2" d="M9463 24460l-699 0 -2054 2327 834 0c615,-1179 1785,-860 2293,-1674 -313,10 -700,123 -1024,115 -18,-82 22,-151 112,-210 238,59 447,28 647,-29 -177,-40 -367,-63 -472,-192l127 -187c381,166 587,122 707,-26 -237,0 -425,-25 -471,-124z"/>
    <g>
     <g>
      <path class="fil2 str3" d="M-58 10318c-454,-1708 76,-2798 1432,-3371 -154,-4000 5216,-2489 7892,-4096 -213,585 -749,987 -1461,1289 -174,438 -560,624 -1018,725 -168,282 -428,444 -765,512 -271,300 -596,499 -990,569 -740,779 -2907,700 -3497,1128 28,555 393,1017 1035,1403l-2628 1841z"/>
      <path class="fil3 str1" d="M1477 8259c0,1 -228,198 -275,589 -46,389 13,483 13,483l131 -79c0,0 -32,-49 8,-386 40,-333 225,-492 225,-492l-102 -115z"/>
      <path class="fil3 str1" d="M1105 7918c-168,174 -303,511 -376,850 -74,348 -83,705 5,900l139 -63c-74,-165 -62,-485 6,-805 68,-315 189,-623 336,-776l-110 -106z"/>
      <path class="fil3 str1" d="M891 7592c-279,245 -473,623 -581,1030 -119,450 -135,938 -47,1319l149 -34c-82,-358 -67,-819 46,-1246 101,-379 279,-730 534,-954l-101 -115z"/>
      <path class="fil0" d="M7873 4110c-989,242 -2598,47 -3345,324"/>
      <path class="fil0" d="M6842 4852c-891,40 -1964,-255 -2861,79"/>
      <path class="fil0" d="M6031 5393c-891,41 -2217,-278 -3097,200"/>
      <path class="fil0" d="M5079 5934c-892,40 -2074,-94 -2821,377"/>
     </g>
     <g>
      <path class="fil3" d="M7855 4036c-465,114 -1076,130 -1667,145 -655,16 -1285,32 -1686,181l52 143c379,-139 996,-155 1638,-172 599,-15 1218,-31 1699,-148l-36 -149z"/>
      <path class="fil3" d="M6839 4776c-300,13 -626,-12 -958,-39 -648,-50 -1321,-103 -1926,122l53 143c573,-213 1229,-161 1861,-112 336,27 665,52 977,38l-7 -152z"/>
      <path class="fil3" d="M6028 5317c-264,12 -570,-9 -891,-30 -761,-50 -1605,-106 -2239,239l73 134c595,-323 1416,-269 2156,-220 325,22 634,42 907,30l-6 -153z"/>
      <path class="fil3" d="M5075 5857c-200,9 -412,9 -631,10 -775,1 -1629,2 -2227,380l82 129c561,-354 1391,-355 2145,-356 222,-1 438,-1 638,-10l-7 -153z"/>
     </g>
    </g>
    <path class="fil4" d="M3740 21303c-5,-26 -12,-53 -18,-80l0 -1 0 0c-53,-225 -122,-499 -200,-752l-357 -109c-626,-139 -698,-385 -952,-863 581,34 939,193 1101,726l151 70c-40,-116 -82,-223 -125,-312l-118 -247 0 0c-47,-99 -94,-198 -142,-296l-225 -62c-627,-139 -698,-385 -953,-862 406,23 685,104 896,339 -84,-170 -170,-345 -262,-527l-11 -21 -251 -90c-614,-186 -666,-437 -884,-932 435,58 717,172 911,469 -52,-155 -101,-318 -146,-480 -26,-97 -50,-193 -73,-288l-185 -66c-614,-186 -666,-437 -884,-933 492,67 789,204 984,597 -36,-193 -62,-368 -73,-510 -6,-61 -11,-123 -18,-187l-204 -43c-600,-197 -667,-437 -884,-932 568,77 876,247 1067,799 -26,-200 -61,-413 -108,-632 -44,-204 -98,-415 -165,-627l-303 -89c-621,-50 -740,-258 -1088,-683 577,-35 920,24 1247,530l65 3c-7,-18 -13,-35 -19,-52 -96,-261 -200,-453 -300,-626l0 0 0 0c-16,-28 -32,-55 -48,-82 -35,-60 -69,-119 -102,-179l-57 -28c-588,-158 -937,-459 -1101,-1018 363,28 629,199 919,467 -8,-27 -15,-56 -21,-85 -37,-156 -67,-308 -84,-457l-169 -142c-539,-88 -891,-403 -1013,-963 287,-24 962,266 1021,832l147 107c-5,-109 -1,-218 16,-325 15,-98 40,-196 78,-292l-4 -6c-114,-541 -9,-1136 436,-1416 38,509 2,646 -44,871 16,-15 32,-29 48,-44 150,-133 400,-318 693,-523 -28,-558 227,-935 672,-1214 42,559 -161,650 -238,918 230,-155 469,-312 694,-457 23,-133 94,-392 149,-617 80,-330 466,-557 572,-604 78,203 -110,682 -196,884 331,-210 562,-354 574,-361 13,-10 69,-49 154,-111 -15,-126 -43,-439 20,-696 80,-331 368,-645 454,-654 41,206 83,562 29,682 -40,88 -152,331 -248,484 216,-156 487,-354 742,-545 -16,-114 -48,-424 32,-678 101,-316 354,-676 441,-685 40,206 80,559 28,682 -34,81 -136,307 -202,453 96,-74 184,-144 257,-204 121,-100 262,-221 412,-350l0 0c59,-51 119,-103 181,-156 -1,-120 8,-361 80,-585 101,-317 498,-665 498,-665 14,299 8,607 -44,722 -16,36 -51,94 -91,158 199,-162 402,-317 598,-449 1,-127 13,-350 80,-560 101,-317 532,-696 532,-696 15,299 -26,638 -77,753 -27,60 -106,182 -176,287 226,-125 487,-273 729,-413 -2,-113 4,-368 79,-604 101,-317 533,-696 533,-696 14,299 -70,638 -121,753 -36,80 -144,272 -208,383 294,-172 511,-301 513,-302 0,0 166,-95 302,-276 135,-182 293,-294 466,-349 172,-54 382,-115 382,-115 0,0 -178,452 -348,544 -170,92 -528,122 -607,173 -79,50 -77,101 -89,83 -1,1 -61,40 -161,104 248,15 170,-308 888,15 -310,282 -665,447 -1184,173 -167,105 -364,228 -563,348 325,54 540,-236 1005,147 -479,248 -909,330 -1213,-23 -132,77 -260,151 -378,215 -139,76 -286,171 -436,279l106 78c406,-168 748,-105 1047,118 -509,321 -976,355 -1382,-25 -233,179 -467,376 -686,564 146,9 434,-23 529,-38 125,-19 170,49 454,143 0,0 -453,373 -799,357 -244,-12 -410,-132 -487,-202 -94,80 -183,156 -267,225 -117,97 -269,215 -434,340 143,-1 398,-4 490,-24 131,-28 283,50 478,128 -82,97 -356,329 -685,370 -259,32 -508,-155 -644,-204 -248,183 -490,359 -665,485 39,15 78,32 92,29 136,-28 688,-46 893,67 -22,84 -294,307 -716,345 -308,29 -574,-85 -696,-150 -149,93 -386,243 -662,420 160,-2 778,2 952,171 -85,79 -473,360 -817,325 -254,-26 -542,-108 -652,-162 -274,180 -556,368 -810,543l68 22c335,42 436,-154 1006,66 -281,426 -956,450 -1284,227l-184 -34c-144,106 -266,202 -353,279 -289,256 -422,520 -464,795 -4,28 -7,56 -10,85 137,-453 676,-714 931,-710 -84,560 -406,897 -928,1025 15,158 48,322 87,491 58,249 140,432 235,605l45 -62c145,-445 214,-778 588,-966 60,580 21,853 -464,1221l-36 40c111,190 228,398 337,694 23,63 45,126 65,189l20 -22c-79,-468 -7,-794 382,-1159 91,474 203,758 -168,1194l-167 197c54,183 99,364 137,541 19,88 36,176 51,262 -1,-416 196,-670 587,-953 42,540 96,782 -340,1239l-181 152c13,109 24,213 32,313 14,161 45,366 90,591l71 -52c191,-657 192,-780 706,-1050 -35,540 -4,889 -552,1152l-181 155c28,123 59,250 93,376 51,188 109,376 171,550l79 -69c-98,-594 94,-893 567,-1231 39,540 127,892 -329,1343l-224 201c34,83 69,161 105,232 86,169 166,331 243,487l54 -49c-61,-599 149,-885 643,-1193 5,541 60,792 -424,1213l-196 188c123,252 238,493 354,736l75 -87c-59,-512 96,-901 516,-1245 46,539 106,867 -433,1339l-101 113 75 156c80,166 156,390 224,622l27 -74c-59,-511 122,-817 541,-1161 47,539 107,824 -433,1296l-85 117c95,348 168,686 202,847l40 -62c-80,-598 176,-935 577,-1190 77,333 122,834 -351,1221l-235 254 5 28c63,418 291,784 639,967 -10,53 -15,108 -15,165 0,57 5,113 16,168 -514,-267 -727,-651 -807,-1323 -7,-59 -15,-117 -24,-171l-342 -145c-662,-222 -711,-497 -933,-1043 625,103 1012,326 1127,921l114 69c-9,-47 -18,-87 -25,-119zm5641 -16195l106 60c-12,-17 -101,-58 -106,-60z"/>
    <g>
     <g>
      <path class="fil5" d="M11902 4459c-119,-62 -598,-143 -727,94 -158,365 87,684 194,752 103,-127 51,-361 139,-490 101,-141 374,-169 394,-356z"/>
      <path class="fil6" d="M11338 5281l0 0 0 0 0 0zm32 24c242,169 594,131 716,-56 318,-366 -38,-711 -195,-796 -109,237 -261,236 -383,362 -88,129 -36,363 -138,490z"/>
      <path class="fil3" d="M12027 4553c0,0 -168,187 -250,222 -178,78 -186,187 -195,298 -4,57 -8,115 -35,170 -23,48 -63,123 -64,123l-20 -10c0,0 41,-76 63,-123 25,-51 29,-107 34,-162 9,-117 17,-234 208,-317 77,-33 242,-216 242,-217l17 16z"/>
      <path class="fil3" d="M11902 4460c10,69 -163,227 -244,263 -178,78 -187,187 -195,298 -5,57 -9,115 -36,170 -23,47 -56,109 -56,109l-20 -10c0,0 33,-62 56,-109 24,-51 29,-107 33,-162 9,-117 18,-234 208,-317 77,-33 251,-199 231,-254l23 12z"/>
     </g>
     <g>
      <path class="fil7" d="M12269 5045c-30,193 -157,308 -310,403 157,208 163,393 230,542 196,-103 84,-329 196,-516 102,-171 316,-136 351,-380 -162,-15 -269,37 -467,-49z"/>
      <path class="fil3" d="M12350 5074c-9,80 -40,167 -91,238 -52,73 -146,156 -243,222 -6,-11 -13,-22 -20,-33 93,-63 183,-142 233,-211 48,-68 77,-152 84,-228 13,5 25,9 37,12z"/>
      <path class="fil8" d="M12736 5094c67,74 502,402 282,785 -165,252 -530,190 -829,111 196,-103 84,-329 196,-516 102,-171 316,-136 351,-380z"/>
      <path class="fil0" d="M12189 5990c196,-103 84,-329 196,-516 102,-171 316,-136 351,-380"/>
      <path class="fil3" d="M12832 5186c-35,127 -146,210 -234,265l0 0c-45,29 -85,54 -101,79l0 0c-41,61 -51,145 -61,226 -13,100 -37,208 -105,268 -16,-3 -32,-7 -48,-10 74,-45 102,-158 115,-261 10,-87 21,-175 67,-244l0 0c21,-32 64,-59 113,-90l0 0c87,-54 199,-140 221,-264 11,9 21,20 33,31z"/>
      <path class="fil3" d="M12752 5110c-30,127 -113,192 -194,239 -58,34 -117,68 -157,135 -44,74 -52,156 -59,233 -10,107 -27,213 -122,281l-31 -8c164,-110 76,-335 188,-522 102,-172 299,-151 359,-374 4,4 9,10 16,16z"/>
     </g>
     <g>
      <path class="fil7" d="M13176 5672c-18,198 -139,324 -288,432 172,199 190,385 268,531 191,-119 63,-339 164,-537 93,-181 312,-162 331,-412 -164,-3 -270,59 -475,-14z"/>
      <path class="fil3" d="M13260 5696c-4,81 -30,172 -77,247 -48,78 -137,169 -232,243 -7,-10 -14,-20 -22,-31 90,-71 176,-158 222,-231 44,-73 68,-161 70,-237 13,3 26,6 39,9z"/>
      <path class="fil8" d="M13651 5686c73,70 534,369 337,773 -150,269 -524,234 -832,176 191,-119 63,-339 164,-537 93,-181 312,-162 331,-412z"/>
      <path class="fil0" d="M13156 6635c191,-119 63,-339 164,-537 93,-181 312,-162 331,-412"/>
      <path class="fil3" d="M13754 5772c-26,131 -134,224 -219,287l0 0c-44,32 -83,60 -97,87l0 0c-37,65 -42,151 -47,234 -7,102 -24,212 -88,279 -17,-2 -34,-4 -50,-7 72,-50 93,-167 99,-273 5,-88 11,-179 52,-251l0 0c19,-35 61,-65 109,-100l0 0c84,-62 192,-157 206,-285 11,9 23,19 35,29z"/>
      <path class="fil3" d="M13668 5701c-22,131 -101,204 -180,257 -56,39 -114,78 -150,148 -40,79 -43,163 -45,242 -3,108 -13,217 -105,293l-32 -6c159,-123 55,-345 156,-543 93,-181 293,-175 339,-406 5,4 10,10 17,15z"/>
     </g>
     <g>
      <path class="fil7" d="M14156 6264c-26,225 -168,365 -341,483 191,232 206,445 290,614 222,-131 82,-385 203,-608 111,-204 360,-175 389,-459 -187,-8 -309,59 -541,-30z"/>
      <path class="fil3" d="M14251 6293c-7,93 -39,196 -94,280 -57,87 -162,188 -272,270 -7,-12 -16,-24 -24,-36 105,-78 205,-175 259,-257 53,-81 83,-181 87,-268 15,4 30,8 44,11z"/>
      <path class="fil8" d="M14697 6294c81,81 598,436 361,891 -179,301 -604,250 -953,176 222,-131 82,-385 203,-608 111,-204 360,-175 389,-459z"/>
      <path class="fil0" d="M14105 7361c222,-131 82,-385 203,-608 111,-204 360,-175 389,-459"/>
      <path class="fil3" d="M14812 6395c-34,149 -159,251 -258,320l0 0c-51,36 -96,67 -113,96l0 1c-45,72 -53,170 -61,265 -10,116 -33,241 -109,315 -19,-3 -37,-6 -56,-10 83,-55 110,-187 121,-308 8,-100 17,-203 67,-284l0 0c23,-39 71,-73 127,-111l0 0c98,-68 223,-173 243,-318 13,10 25,22 39,34z"/>
      <path class="fil3" d="M14717 6312c-30,148 -122,229 -214,287 -65,42 -132,85 -175,164 -48,89 -53,184 -58,274 -7,123 -22,248 -129,331l-36 -7c185,-136 73,-392 194,-615 111,-203 339,-190 398,-452 5,5 12,11 20,18z"/>
     </g>
     <g>
      <path class="fil7" d="M15234 7067c-34,226 -182,363 -362,477 185,240 193,456 272,630 229,-124 97,-386 227,-607 119,-203 370,-165 410,-451 -190,-15 -315,48 -547,-49z"/>
      <path class="fil3" d="M15329 7100c-10,93 -46,196 -105,279 -61,86 -170,185 -284,264 -7,-13 -15,-25 -23,-38 108,-75 213,-170 271,-251 56,-80 90,-180 97,-268 15,5 30,10 44,14z"/>
      <path class="fil8" d="M15781 7116c78,85 589,462 334,914 -192,298 -620,232 -971,144 229,-124 97,-386 227,-607 119,-203 370,-165 410,-451z"/>
      <path class="fil0" d="M15144 8174c229,-124 97,-386 227,-607 119,-203 370,-165 410,-451"/>
      <path class="fil3" d="M15893 7222c-40,149 -169,248 -272,315l0 0c-53,34 -100,64 -118,93l0 1c-47,71 -59,170 -71,265 -14,117 -42,243 -121,316 -19,-4 -38,-8 -57,-12 87,-53 119,-186 134,-308 12,-101 24,-204 77,-285l1 0c24,-38 74,-71 131,-108l1 0c101,-65 232,-167 257,-313 12,11 25,23 38,36z"/>
      <path class="fil3" d="M15799 7134c-35,149 -130,227 -225,284 -68,40 -137,81 -184,160 -51,87 -60,184 -68,274 -11,125 -31,250 -142,331l-36 -9c192,-131 88,-394 218,-614 119,-203 349,-182 419,-444 4,5 11,11 18,18z"/>
     </g>
     <g>
      <path class="fil7" d="M16292 7773c-31,247 -189,398 -380,526 206,255 220,489 310,675 244,-140 95,-420 230,-663 124,-222 397,-187 432,-498 -205,-11 -339,60 -592,-40z"/>
      <path class="fil3" d="M16395 7807c-8,101 -45,213 -107,305 -63,95 -179,204 -300,292 -9,-13 -17,-26 -27,-40 116,-84 228,-189 288,-278 59,-88 93,-197 99,-293 16,6 32,10 47,14z"/>
      <path class="fil8" d="M16884 7813c88,90 649,486 385,981 -201,328 -665,266 -1047,180 244,-140 95,-420 230,-663 124,-222 397,-187 432,-498z"/>
      <path class="fil0" d="M16222 8974c244,-140 95,-420 230,-663 124,-222 397,-187 432,-498"/>
      <path class="fil3" d="M17008 7925c-38,163 -177,273 -286,348l0 0c-57,38 -106,71 -125,104l-1 0c-49,79 -59,186 -69,290 -13,127 -40,264 -123,344 -21,-4 -42,-7 -62,-11 92,-60 123,-205 136,-337 11,-109 22,-222 78,-311l0 0c25,-42 78,-78 140,-119l0 0c108,-74 247,-187 271,-346 13,12 27,25 41,38z"/>
      <path class="fil3" d="M16905 7833c-34,162 -136,249 -237,312 -72,45 -146,91 -195,178 -53,96 -60,200 -67,299 -8,135 -27,271 -145,361l-39 -9c204,-147 85,-428 220,-670 124,-222 374,-205 442,-491 6,6 13,12 21,20z"/>
     </g>
     <g>
      <path class="fil7" d="M17466 8610c-54,251 -231,392 -439,506 188,283 181,525 256,725 265,-121 137,-424 299,-662 148,-217 426,-156 492,-473 -211,-31 -356,31 -608,-96z"/>
      <path class="fil3" d="M17570 8654c-18,104 -66,216 -138,305 -75,91 -204,193 -337,273 -8,-14 -15,-29 -24,-43 127,-77 252,-174 322,-261 69,-85 115,-194 129,-292 17,7 33,13 48,18z"/>
      <path class="fil8" d="M18074 8706c81,101 623,561 305,1046 -237,320 -710,213 -1096,89 265,-121 137,-424 299,-662 148,-217 426,-156 492,-473z"/>
      <path class="fil0" d="M17283 9841c265,-121 137,-424 299,-662 148,-217 426,-156 492,-473"/>
      <path class="fil3" d="M18191 8833c-55,164 -208,265 -327,331l0 0c-62,35 -116,65 -139,96l0 1c-59,76 -79,185 -99,291 -25,130 -65,269 -159,344 -21,-6 -42,-12 -63,-18 101,-53 147,-199 172,-333 21,-112 43,-227 109,-314l0 0c30,-41 88,-73 155,-110l0 0c119,-66 272,-170 312,-331 12,14 25,28 39,43z"/>
      <path class="fil3" d="M18093 8728c-50,164 -163,244 -273,300 -79,40 -160,81 -217,165 -64,94 -81,201 -97,302 -21,138 -53,277 -183,359l-40 -13c224,-132 127,-433 289,-670 149,-218 405,-177 502,-465 4,6 11,14 19,22z"/>
     </g>
     <g>
      <path class="fil7" d="M18642 9399c-9,255 -157,424 -341,573 235,243 270,482 380,664 237,-166 58,-440 175,-701 107,-238 389,-228 397,-550 -211,7 -342,93 -611,14z"/>
      <path class="fil3" d="M18751 9424c1,104 -26,222 -81,322 -57,103 -166,226 -282,327 -9,-12 -20,-25 -30,-38 111,-97 215,-215 269,-312 52,-96 77,-210 74,-309 18,4 34,7 50,10z"/>
      <path class="fil8" d="M19253 9385c98,85 710,438 484,970 -175,355 -657,334 -1056,281 237,-166 58,-440 175,-701 107,-238 389,-228 397,-550z"/>
      <path class="fil0" d="M18681 10636c237,-166 58,-440 175,-701 107,-238 389,-228 397,-550"/>
      <path class="fil3" d="M19391 9489c-25,170 -157,296 -262,382l0 0c-55,44 -102,83 -119,118l0 1c-43,85 -44,195 -45,303 -1,131 -16,274 -94,364 -22,-2 -44,-4 -65,-6 89,-70 108,-221 109,-357 1,-113 2,-230 51,-326l0 0c22,-45 73,-87 132,-136l0 0c105,-85 236,-214 247,-378 14,10 29,22 46,35z"/>
      <path class="fil3" d="M19276 9403c-20,169 -116,268 -214,342 -70,53 -142,107 -183,200 -46,103 -44,211 -41,313 3,139 -3,280 -116,383l-41 -5c195,-169 47,-447 164,-707 107,-239 365,-245 408,-544 6,5 14,11 23,18z"/>
     </g>
     <path class="fil9" d="M19939 10039c-119,584 -466,632 -459,842 262,53 330,-241 578,-329 227,-82 400,113 619,-87 -139,-136 -408,-257 -738,-426z"/>
     <path class="fil8" d="M20677 10465c6,119 161,752 -337,940 -348,109 -641,-224 -860,-524 262,53 330,-241 578,-329 227,-82 400,113 619,-87z"/>
     <path class="fil0" d="M19480 10881c262,53 330,-241 578,-329 227,-82 400,113 619,-87"/>
     <path class="fil3" d="M20696 10623c-129,91 -297,84 -421,69l0 0c-65,-8 -121,-15 -155,-4l0 0c-84,26 -158,96 -230,163 -89,83 -193,164 -303,170 -12,-16 -25,-31 -37,-47 103,15 216,-69 307,-155 76,-71 154,-145 249,-174l0 0c44,-14 105,-7 175,2l0 0c123,15 293,21 409,-77 2,16 4,34 6,53z"/>
     <path class="fil3" d="M20680 10492c-126,95 -253,93 -364,75 -80,-13 -162,-26 -250,6 -98,35 -168,105 -234,172 -91,90 -188,176 -329,167l-23 -31c237,23 328,-253 575,-341 227,-81 395,87 622,-75 0,7 1,17 3,27z"/>
     <path class="fil3" d="M19948 10083c14,143 -19,282 -95,418 -73,132 -185,260 -332,386 -8,-1 -15,-2 -23,-3l-14 -17c150,-125 263,-254 336,-384 61,-110 93,-222 93,-336 6,-20 11,-41 16,-62l19 -2z"/>
     <path class="fil7" d="M20707 11270c-32,11 -63,20 -95,26 -180,224 -361,312 -643,216 -178,78 -239,220 -261,353 266,181 331,-138 632,-120 276,17 656,435 687,16 -112,-164 -210,-198 -320,-491z"/>
     <path class="fil10" d="M20933 12096c-159,218 -61,518 -592,627 -452,-43 -468,-408 -602,-673 269,95 337,-143 607,-146 276,-3 321,187 587,192z"/>
     <path class="fil0" d="M19593 11805c266,169 446,-104 747,-86 276,15 394,292 704,182"/>
     <path class="fil7" d="M20366 12854c-341,-40 -383,-105 -506,-218 -273,323 -533,351 -495,582 154,140 255,-135 552,-84 279,49 553,580 629,98 -133,-165 -95,-85 -180,-378z"/>
     <path class="fil10" d="M20384 13569c-160,217 -39,498 -570,606 -451,-42 -350,-532 -483,-796 269,95 340,-63 609,-66 276,-3 177,251 444,256z"/>
     <g>
      <path class="fil7" d="M20075 14279c-34,-4 -65,-8 -93,-12 -45,14 -92,26 -142,36l-19 4 -19 -2c-140,-13 -263,-65 -354,-172 -277,296 -525,337 -486,574 168,153 278,-147 602,-91 303,52 601,631 685,106 -146,-180 -81,-124 -174,-443z"/>
      <path class="fil10" d="M20072 15089c-174,237 -42,543 -621,661 -492,-47 -381,-580 -526,-867 292,102 370,-69 664,-72 300,-4 192,273 483,278z"/>
     </g>
     <g>
      <path class="fil7" d="M19465 15832c-187,-1 -291,3 -483,-238 -286,285 -669,430 -630,666 168,153 278,-147 602,-91 303,53 601,631 685,106 -145,-179 -81,-124 -174,-443z"/>
      <path class="fil10" d="M19462 16643c-174,236 -42,542 -621,660 -492,-46 -381,-579 -526,-867 292,103 370,-69 664,-72 301,-3 193,273 483,279z"/>
     </g>
     <g>
      <path class="fil7" d="M19114 17495c-187,-1 -417,34 -587,-137 -285,284 -565,328 -525,565 167,152 277,-148 601,-91 304,52 601,631 685,105 -145,-179 -81,-123 -174,-442z"/>
      <path class="fil10" d="M19111 18305c-174,237 -42,542 -621,661 -491,-47 -381,-580 -526,-868 293,103 370,-68 664,-71 301,-4 193,272 483,278z"/>
     </g>
     <g>
      <path class="fil7" d="M18562 19124c-191,-1 -308,-57 -482,-232 -292,285 -696,428 -656,670 172,156 284,-151 616,-93 310,53 606,726 700,108 -148,-183 -83,-126 -178,-453z"/>
      <path class="fil10" d="M18559 19953c-177,242 -42,555 -635,676 -503,-48 -390,-593 -538,-887 299,105 379,-71 679,-74 308,-3 197,279 494,285z"/>
     </g>
     <path class="fil7" d="M18126 20799c-188,-37 -485,-48 -631,-253 -341,226 -497,285 -503,530 79,198 359,-81 674,38 295,111 246,499 685,212 -111,-208 -193,-189 -225,-527z"/>
     <path class="fil10" d="M18089 21624c-220,204 -132,574 -736,582 -485,-141 -272,-655 -363,-972 274,159 385,4 681,55 302,52 233,203 418,335z"/>
     <path class="fil10" d="M17248 22307l127 50c-268,458 -601,719 -991,809 1,-24 2,-48 2,-72 0,-90 -12,-179 -36,-264 434,-21 721,-256 898,-523z"/>
    </g>
    <polygon class="fil11" points="10500,5679 18880,11675 15772,21484 5223,21465 2120,11675 "/>
    <g>
     <g>
      <polygon class="fil5" points="16287,19860 13531,18225 16531,19088 "/>
      <polygon class="fil5" points="13140,17615 17159,17108 16905,17909 "/>
      <polygon class="fil5" points="12628,17350 12697,17065 18084,14189 17562,15836 "/>
      <polygon class="fil5" points="17957,11015 12789,15990 12835,16324 18835,11818 18880,11675 "/>
      <polygon class="fil5" points="16007,9619 12076,15691 12295,15875 16901,10259 "/>
      <polygon class="fil5" points="11409,15346 14357,8439 15012,8908 11708,15415 "/>
      <polygon class="fil5" points="12812,7333 11058,14776 11190,14897 13529,7846 "/>
      <polygon class="fil5" points="11269,6229 10500,14437 10776,14506 12032,6776 "/>
     </g>
     <g>
      <polygon class="fil5" points="4714,19860 7469,18225 4469,19088 "/>
      <polygon class="fil5" points="7860,17615 3842,17108 4096,17909 "/>
      <polygon class="fil5" points="8372,17350 8303,17065 2917,14190 3439,15836 "/>
      <polygon class="fil5" points="3043,11015 8211,15990 8165,16324 2165,11818 2120,11675 "/>
      <polygon class="fil5" points="4993,9619 8924,15691 8705,15875 4099,10259 "/>
      <polygon class="fil5" points="9591,15346 6643,8439 5988,8908 9292,15415 "/>
      <polygon class="fil5" points="8188,7333 9942,14776 9810,14897 7471,7846 "/>
      <polygon class="fil5" points="9731,6229 10500,14437 10224,14506 8968,6776 "/>
     </g>
    </g>
    <polygon class="fil1" points="10257,10980 11023,10980 11023,15971 10257,15971 "/>
    <path class="fil12 str4" d="M9850 17682l131 -264 34 73 28 -227c0,0 102,-101 146,-178 45,-78 36,-118 45,-153 9,-34 49,-88 63,-89 15,-1 35,-26 71,16 36,42 62,193 47,221 -14,29 -96,531 -96,531l656 -6c0,0 -23,-322 -64,-417 -40,-95 -138,-322 -54,-339 83,-18 112,0 126,37 15,38 38,46 38,46 0,0 28,127 126,242 98,115 190,497 190,497 0,0 6,-575 40,-678 35,-104 -17,-449 -34,-504 -17,-54 -29,-112 -29,-112 0,0 265,-328 319,-397 55,-69 64,-80 64,-80 0,0 132,353 339,549 207,196 374,190 409,190 34,0 29,-81 29,-81 0,0 158,159 221,179 63,20 81,20 95,8 14,-11 23,-66 23,-66 0,0 86,144 213,164 126,20 146,-6 161,-17 14,-12 43,-46 43,-46 0,0 89,92 161,100 72,9 92,6 109,-2 18,-9 38,-58 38,-58 0,0 161,106 273,109 112,3 201,-11 201,-11 0,0 -491,-426 -514,-782 -23,-357 -52,-978 -305,-1341 -253,-362 -455,-454 -938,-414 -483,40 -546,316 -805,175 -259,-140 -351,-230 -409,-405 -57,-176 -178,-397 -241,-446 -64,-49 -121,-83 -121,-83l178 -104c0,0 -118,-132 -115,-149 3,-18 87,-58 46,-141 -40,-84 -63,-21 -63,-21 0,0 20,-40 -40,-48 -61,-9 -75,63 -133,57 -57,-6 -95,-52 -95,-52 0,0 -23,90 -48,69 -26,-20 -58,-69 -58,-69l-40 78 -78 -49 -20 112 -89 -3c0,0 0,84 -43,87 -43,3 -84,26 -84,63 0,37 18,95 18,95 0,0 -75,-9 -187,40 -113,49 -144,86 -144,86l144 9 -12 63 158 -26c0,0 -10,95 71,139 80,43 191,30 125,251 -66,222 -294,630 -659,538 -365,-92 -592,-273 -906,-221 -313,51 -552,284 -719,779 -167,495 -138,662 -167,834 -28,173 -86,535 -236,656 -149,121 -279,256 -279,256 0,0 118,55 193,14 75,-40 98,-74 98,-74 0,0 103,40 144,14 40,-26 77,-83 77,-83 0,0 -23,95 64,92 86,-3 178,-52 178,-52 0,0 86,14 141,11 55,-2 78,-54 78,-54 0,0 92,20 141,-3 48,-23 97,-121 97,-121 0,0 64,92 130,61 66,-32 92,-130 92,-130 0,0 57,35 92,14 34,-20 43,-57 43,-57 0,0 63,60 101,26 37,-35 69,-78 69,-78 0,0 175,35 316,-155 141,-190 245,-429 245,-429 0,0 57,78 161,205 103,126 241,241 241,241 0,0 -109,1188 -55,1288z"/>
    <g>
     <path class="fil0 str5" d="M8772 14487c0,0 -690,104 -828,875 -138,770 -138,1035 -236,1190 -98,156 -213,340 -213,340"/>
     <path class="fil0 str4" d="M8206 15672c0,0 -182,578 -300,820 -118,242 -190,331 -190,331"/>
     <path class="fil0 str4" d="M8495 15716c0,0 -141,537 -259,779 -118,242 -288,374 -288,374"/>
     <path class="fil0 str4" d="M8772 15693c-27,384 -140,694 -377,1038"/>
     <path class="fil0 str4" d="M9037 15714c-28,384 -71,591 -285,886"/>
     <path class="fil0 str6" d="M8289 15758c0,0 -167,570 -299,820 -132,250 -190,331 -190,331"/>
     <path class="fil0 str6" d="M8592 15802c0,0 -103,440 -236,690 -132,251 -190,331 -190,331"/>
     <path class="fil0 str6" d="M8847 15797c-29,305 -24,558 -230,845"/>
     <path class="fil0 str6" d="M9131 15789c-29,305 -38,394 -205,750"/>
     <path class="fil0 str4" d="M8948 14838c0,0 650,-23 702,259 51,282 -6,466 -64,610 -57,144 -97,271 -97,271"/>
    </g>
    <g>
     <path class="fil0 str5" d="M12510 14487c0,0 690,104 828,875 138,770 138,1035 236,1190 98,156 213,340 213,340"/>
     <path class="fil0 str4" d="M13077 15672c0,0 181,578 299,820 118,242 190,331 190,331"/>
     <path class="fil0 str4" d="M12787 15716c0,0 141,537 259,779 118,242 288,374 288,374"/>
     <path class="fil0 str4" d="M12510 15693c27,384 140,694 377,1038"/>
     <path class="fil0 str4" d="M12245 15714c28,384 72,591 285,886"/>
     <path class="fil0 str6" d="M12993 15758c0,0 167,570 299,820 132,250 190,331 190,331"/>
     <path class="fil0 str6" d="M12690 15802c0,0 103,440 236,690 132,251 190,331 190,331"/>
     <path class="fil0 str6" d="M12435 15797c29,305 24,558 230,845"/>
     <path class="fil0 str6" d="M12151 15789c29,305 38,394 205,750"/>
     <path class="fil0 str4" d="M12334 14838c0,0 -650,-23 -701,259 -52,282 5,466 63,610 57,144 97,271 97,271"/>
    </g>
    <circle class="fil1 str1" cx="10326" cy="13565" r="41"/>
    <path class="fil1 str1" d="M10369 13624c0,0 42,22 52,46 9,24 14,42 14,42 0,0 27,-84 -66,-88z"/>
    <path class="fil13 str5" d="M10081 13390c0,0 111,11 177,-8 66,-18 286,-14 348,85 50,81 71,136 77,153l174 -101c0,0 -118,-132 -115,-149 3,-18 87,-58 46,-141 -40,-84 -63,-21 -63,-21 0,0 20,-40 -40,-48 -61,-9 -75,63 -133,57 -57,-6 -95,-52 -95,-52 0,0 -23,90 -48,69 -26,-20 -58,-69 -58,-69l-40 78 -78 -49 -20 112 -89 -3c0,0 0,84 -43,87z"/>
    <g>
     <polygon class="fil0 str7" points="11200,6568 11108,7149 11770,7062 11919,7315 12339,7229 12155,7655 12840,7643 12644,8035 13162,8104 12857,8374 13507,8673 12909,8978 13375,9438 12569,9375 12851,9783 12000,9565 11856,9881 11528,9519 11327,9904 10918,9674 10500,9887 10082,9674 9673,9904 9472,9519 9144,9881 9000,9565 8149,9783 8431,9375 7625,9438 8091,8978 7493,8673 8143,8374 7838,8104 8356,8035 8160,7643 8845,7655 8661,7229 9081,7315 9230,7062 9892,7149 9800,6568 10500,7137 "/>
     <polygon id="1" class="fil14" points="11200,6568 11108,7149 11770,7062 11919,7315 12339,7229 12155,7655 12840,7643 12644,8035 13162,8104 12857,8374 13507,8673 12909,8978 13375,9438 12569,9375 12851,9783 12000,9565 11856,9881 11528,9519 11327,9904 10918,9674 10500,9887 10082,9674 9673,9904 9472,9519 9144,9881 9000,9565 8149,9783 8431,9375 7625,9438 8091,8978 7493,8673 8143,8374 7838,8104 8356,8035 8160,7643 8845,7655 8661,7229 9081,7315 9230,7062 9892,7149 9800,6568 10500,7137 "/>
    </g>
    <g>
     <path class="fil0 str8" d="M11919 7845c70,208 200,409 346,610 -227,-11 -453,-86 -679,-242l305 662 -524 -328c-26,207 -12,421 46,644 -217,-127 -404,-297 -552,-524l-92 501 -269 -305m-1419 -1018c-70,208 -200,409 -346,610 227,-11 453,-86 679,-242l-305 662 524 -328c26,207 12,421 -46,644 217,-127 404,-297 552,-524l92 501 269 -305"/>
    </g>
    <g>
     <path class="fil0 str7" d="M13182 9248c1,1 768,280 1030,584 262,305 308,400 308,400 0,0 -228,-75 -371,-69 -144,6 -170,75 -170,75l454 380c0,0 -218,-26 -290,57 -72,84 -107,127 -107,127 0,0 256,155 323,284 66,130 106,228 106,228 0,0 -198,-121 -334,-107 -135,15 -227,78 -227,78 0,0 84,92 72,224 -11,133 -26,159 -26,159 0,0 -262,-159 -331,-159 -69,0 -204,-3 -204,-3l253 -120c0,0 -362,-104 -434,-207 -72,-104 6,-222 -26,-300 -31,-77 -69,-158 -69,-158 0,0 -124,161 -250,199 -127,37 -210,43 -210,43 0,0 80,-259 23,-342 -58,-84 -104,-133 -104,-133 0,0 -178,66 -221,147 -43,80 -43,109 -43,109 0,0 -127,-170 -179,-264 -51,-95 -106,-213 -106,-213 0,0 -268,434 -572,313 -305,-121 -320,-138 -320,-138l-382 -213 -87 110 -188 57 -188 -57 -87 -110 -382 213c0,0 -15,17 -320,138 -304,121 -572,-313 -572,-313 0,0 -55,118 -106,213 -52,94 -179,264 -179,264 0,0 0,-29 -43,-109 -43,-81 -221,-147 -221,-147 0,0 -46,49 -104,133 -57,83 23,342 23,342 0,0 -83,-6 -210,-43 -126,-38 -250,-199 -250,-199 0,0 -37,81 -69,158 -32,78 46,196 -26,300 -72,103 -434,207 -434,207l253 120c0,0 -135,3 -204,3 -69,0 -331,159 -331,159 0,0 -15,-26 -26,-159 -12,-132 72,-224 72,-224 0,0 -92,-63 -227,-78 -136,-14 -334,107 -334,107 0,0 40,-98 106,-228 67,-129 323,-284 323,-284 0,0 -35,-43 -107,-127 -72,-83 -290,-57 -290,-57l454 -380c0,0 -26,-69 -170,-75 -143,-6 -371,69 -371,69 0,0 46,-95 308,-400 262,-304 1029,-583 1030,-584l-193 190 806 -63 -282 408 851 -218 144 316 328 -362 201 385 409 -230 418 213 418 -213 409 230 201 -385 328 362 144 -316 851 218 -282 -408 806 63 -193 -190z"/>
     <path id="1" class="fil14" d="M13182 9248c1,1 768,280 1030,584 262,305 308,400 308,400 0,0 -228,-75 -371,-69 -144,6 -170,75 -170,75l454 380c0,0 -218,-26 -290,57 -72,84 -107,127 -107,127 0,0 256,155 323,284 66,130 106,228 106,228 0,0 -198,-121 -334,-107 -135,15 -227,78 -227,78 0,0 84,92 72,224 -11,133 -26,159 -26,159 0,0 -262,-159 -331,-159 -69,0 -204,-3 -204,-3l253 -120c0,0 -362,-104 -434,-207 -72,-104 6,-222 -26,-300 -31,-77 -69,-158 -69,-158 0,0 -124,161 -250,199 -127,37 -210,43 -210,43 0,0 80,-259 23,-342 -58,-84 -104,-133 -104,-133 0,0 -178,66 -221,147 -43,80 -43,109 -43,109 0,0 -127,-170 -179,-264 -51,-95 -106,-213 -106,-213 0,0 -268,434 -572,313 -305,-121 -320,-138 -320,-138l-382 -213 -87 110 -188 57 -188 -57 -87 -110 -382 213c0,0 -15,17 -320,138 -304,121 -572,-313 -572,-313 0,0 -55,118 -106,213 -52,94 -179,264 -179,264 0,0 0,-29 -43,-109 -43,-81 -221,-147 -221,-147 0,0 -46,49 -104,133 -57,83 23,342 23,342 0,0 -83,-6 -210,-43 -126,-38 -250,-199 -250,-199 0,0 -37,81 -69,158 -32,78 46,196 -26,300 -72,103 -434,207 -434,207l253 120c0,0 -135,3 -204,3 -69,0 -331,159 -331,159 0,0 -15,-26 -26,-159 -12,-132 72,-224 72,-224 0,0 -92,-63 -227,-78 -136,-14 -334,107 -334,107 0,0 40,-98 106,-228 67,-129 323,-284 323,-284 0,0 -35,-43 -107,-127 -72,-83 -290,-57 -290,-57l454 -380c0,0 -26,-69 -170,-75 -143,-6 -371,69 -371,69 0,0 46,-95 308,-400 262,-304 1029,-583 1030,-584l-193 190 806 -63 -282 408 851 -218 144 316 328 -362 201 385 409 -230 418 213 418 -213 409 230 201 -385 328 362 144 -316 851 218 -282 -408 806 63 -193 -190z"/>
    </g>
    <g>
     <path class="fil0 str7" d="M11037 11380c0,0 420,-86 609,230 190,316 231,472 127,685 -104,212 -259,402 -259,402 0,0 216,6 360,-106 143,-112 238,-265 238,-265 0,0 144,199 156,302 11,104 -32,184 -32,184 0,0 155,-141 213,-198 57,-58 101,-115 101,-115 0,0 97,121 135,170 37,48 66,100 66,100 0,0 141,-126 190,-244 49,-118 60,-167 60,-167 0,0 138,-23 285,0 147,23 224,75 224,75l-279 -288c0,0 115,-37 213,-89 98,-52 138,-78 138,-78l-339 -270 327 -199c-70,-1 -155,-3 -155,-3l253 -120c0,0 -362,-104 -434,-207 -72,-104 6,-222 -26,-300 -31,-77 -69,-158 -69,-158 0,0 -124,161 -250,199 -127,37 -210,43 -210,43 0,0 80,-259 23,-342 -58,-84 -104,-133 -104,-133 0,0 -178,66 -221,147 -43,80 -43,109 -43,109 0,0 -127,-170 -179,-264 -51,-95 -106,-213 -106,-213 0,0 -268,434 -572,313 -305,-121 -320,-138 -320,-138l-382 -213 -87 110 -188 57 -188 -57 -87 -110 -382 213c0,0 -15,17 -320,138 -304,121 -572,-313 -572,-313 0,0 -55,118 -106,213 -52,94 -179,264 -179,264 0,0 0,-29 -43,-109 -43,-81 -221,-147 -221,-147 0,0 -46,49 -104,133 -57,83 23,342 23,342 0,0 -83,-6 -210,-43 -126,-38 -250,-199 -250,-199 0,0 -37,81 -69,158 -32,78 46,196 -26,300 -72,103 -434,207 -434,207l253 120c0,0 -85,2 -155,3l327 199 -339 270c0,0 40,26 138,78 98,52 213,89 213,89l-279 288c0,0 77,-52 224,-75 147,-23 285,0 285,0 0,0 11,49 60,167 49,118 190,244 190,244 0,0 29,-52 66,-100 38,-49 135,-170 135,-170 0,0 44,57 101,115 58,57 213,198 213,198 0,0 -43,-80 -32,-184 12,-103 156,-302 156,-302 0,0 95,153 238,265 144,112 360,106 360,106 0,0 -155,-190 -259,-402 -104,-213 -63,-369 127,-685 189,-316 609,-230 609,-230 0,0 86,9 204,-86 118,-95 333,-92 333,-92 0,0 215,-3 333,92 118,95 204,86 204,86z"/>
     <path id="1" class="fil14" d="M11037 11380c0,0 420,-86 609,230 190,316 231,472 127,685 -104,212 -259,402 -259,402 0,0 216,6 360,-106 143,-112 238,-265 238,-265 0,0 144,199 156,302 11,104 -32,184 -32,184 0,0 155,-141 213,-198 57,-58 101,-115 101,-115 0,0 97,121 135,170 37,48 66,100 66,100 0,0 141,-126 190,-244 49,-118 60,-167 60,-167 0,0 138,-23 285,0 147,23 224,75 224,75l-279 -288c0,0 115,-37 213,-89 98,-52 138,-78 138,-78l-339 -270 327 -199c-70,-1 -155,-3 -155,-3l253 -120c0,0 -362,-104 -434,-207 -72,-104 6,-222 -26,-300 -31,-77 -69,-158 -69,-158 0,0 -124,161 -250,199 -127,37 -210,43 -210,43 0,0 80,-259 23,-342 -58,-84 -104,-133 -104,-133 0,0 -178,66 -221,147 -43,80 -43,109 -43,109 0,0 -127,-170 -179,-264 -51,-95 -106,-213 -106,-213 0,0 -268,434 -572,313 -305,-121 -320,-138 -320,-138l-382 -213 -87 110 -188 57 -188 -57 -87 -110 -382 213c0,0 -15,17 -320,138 -304,121 -572,-313 -572,-313 0,0 -55,118 -106,213 -52,94 -179,264 -179,264 0,0 0,-29 -43,-109 -43,-81 -221,-147 -221,-147 0,0 -46,49 -104,133 -57,83 23,342 23,342 0,0 -83,-6 -210,-43 -126,-38 -250,-199 -250,-199 0,0 -37,81 -69,158 -32,78 46,196 -26,300 -72,103 -434,207 -434,207l253 120c0,0 -85,2 -155,3l327 199 -339 270c0,0 40,26 138,78 98,52 213,89 213,89l-279 288c0,0 77,-52 224,-75 147,-23 285,0 285,0 0,0 11,49 60,167 49,118 190,244 190,244 0,0 29,-52 66,-100 38,-49 135,-170 135,-170 0,0 44,57 101,115 58,57 213,198 213,198 0,0 -43,-80 -32,-184 12,-103 156,-302 156,-302 0,0 95,153 238,265 144,112 360,106 360,106 0,0 -155,-190 -259,-402 -104,-213 -63,-369 127,-685 189,-316 609,-230 609,-230 0,0 86,9 204,-86 118,-95 333,-92 333,-92 0,0 215,-3 333,92 118,95 204,86 204,86z"/>
    </g>
    <g>
     <path class="fil0 str7" d="M11037 11380c0,0 -61,132 -138,173 -78,40 -127,46 -127,100 0,55 -3,124 -66,110 -63,-15 -115,-113 -115,-113l-91 121 -91 -121c0,0 -52,98 -115,113 -63,14 -66,-55 -66,-110 0,-54 -49,-60 -127,-100 -77,-41 -138,-173 -138,-173 0,0 86,9 204,-86 118,-95 333,-92 333,-92 0,0 215,-3 333,92 118,95 204,86 204,86z"/>
     <path id="1" class="fil14" d="M11037 11380c0,0 -61,132 -138,173 -78,40 -127,46 -127,100 0,55 -3,124 -66,110 -63,-15 -115,-113 -115,-113l-91 121 -91 -121c0,0 -52,98 -115,113 -63,14 -66,-55 -66,-110 0,-54 -49,-60 -127,-100 -77,-41 -138,-173 -138,-173 0,0 86,9 204,-86 118,-95 333,-92 333,-92 0,0 215,-3 333,92 118,95 204,86 204,86z"/>
    </g>
    <path class="fil1" d="M10626 11097c-11,3 -22,5 -34,7 -36,5 -72,1 -106,-9 20,145 -83,276 -229,295 -148,19 -289,-80 -315,-227 -20,-113 33,-217 123,-271 -87,-35 -155,-112 -172,-210 -27,-150 77,-287 228,-307 76,-10 150,12 208,55 2,-112 71,-216 183,-243 -21,-16 -39,-36 -54,-58 -22,85 -80,157 -176,173 -150,25 -268,-109 -298,-244 -30,-137 27,-306 180,-332 114,-19 209,53 262,149 35,-129 150,-250 293,-226 154,25 210,194 180,332 -23,105 -100,209 -204,238 57,39 100,102 114,174 12,-8 24,-15 38,-21 -42,-80 -35,-186 6,-270 60,-125 207,-226 346,-167 144,61 159,238 97,365 -27,56 -72,108 -126,142 34,37 58,84 67,136 23,130 -52,251 -171,293 54,41 93,101 106,172 27,150 -78,287 -228,307 -147,19 -289,-81 -315,-228 -1,-8 -3,-17 -3,-25zm170 -266c1,-1 2,-1 4,-2 -2,-1 -3,-2 -5,-4 0,2 0,3 1,4 0,1 0,1 0,2zm-99 -158c0,-1 0,-3 -1,-5 -1,1 -2,2 -3,2 1,1 3,2 4,3z"/>
    <g>
     <ellipse class="fil15" transform="matrix(2.4482 0.410034 -0.470141 2.1352 10660.2 9936.25)" rx="63" ry="95"/>
     <ellipse class="fil15" transform="matrix(-2.4482 0.410034 0.470141 2.1352 10223 10013.9)" rx="63" ry="95"/>
     <ellipse class="fil15" transform="matrix(2.28424 0.971639 -0.956819 1.96586 11074.7 10200.9)" rx="63" ry="95"/>
     <ellipse class="fil15" transform="matrix(2.44248 -0.372179 0.280325 1.82237 10571.4 10441)" rx="63" ry="95"/>
     <ellipse class="fil15" transform="matrix(2.9573 -0.390714 0.33941 1.91312 10164.2 10642.4)" rx="63" ry="95"/>
     <ellipse class="fil15" transform="matrix(2.9573 -0.390714 0.33941 1.91312 10213.1 11122.8)" rx="63" ry="95"/>
     <ellipse class="fil15" transform="matrix(2.9573 -0.390714 0.33941 1.91312 10900.5 11082.5)" rx="63" ry="95"/>
     <ellipse class="fil15" transform="matrix(2.9573 -0.390714 0.33941 1.91312 10965.5 10618)" rx="63" ry="95"/>
     <ellipse class="fil15" transform="matrix(2.48944 -0.328901 0.285714 1.61046 10553.6 10865.2)" rx="63" ry="95"/>
    </g>
    <path class="fil16" d="M9839 17632l-979 -497c-66,-142 -22,-224 141,-242l826 388c14,1 12,351 12,351z"/>
    <path class="fil16" d="M11362 17632l979 -497c66,-142 22,-224 -141,-242l-826 388c-14,1 -12,351 -12,351z"/>
    <polygon class="fil17 str0" points="7979,18725 13298,18725 13298,18219 7979,18219 "/>
    <polygon class="fil17 str0" points="6585,20025 14679,20025 14679,19519 6585,19519 "/>
    <polygon class="fil17 str0" points="5230,21464 16110,21464 16110,20831 5230,20831 "/>
    <polygon class="fil1 str0" points="7979,18219 13298,18219 12469,17627 8814,17627 "/>
    <polygon class="fil1 str5" points="6585,19519 14679,19519 13298,18725 7979,18725 "/>
    <polygon class="fil1 str1" points="5224,20819 16110,20832 14679,20025 6585,20025 "/>
    <polygon class="fil1" points="9770,13650 10027,13609 9831,13724 "/>
    <path class="fil9" d="M7278 22663c-279,-290 -747,-435 -1071,-435 -290,0 -534,70 -730,210 -197,141 -295,311 -295,512 0,208 102,384 306,528 204,145 455,217 754,217 194,0 358,-30 491,-90 133,-59 241,-152 323,-279l-985 0 0 -451 1159 0c6,-73 22,-143 48,-212zm7399 -852c944,0 1709,575 1709,1283 0,356 -193,678 -504,910l-313 -312c169,-102 294,-233 357,-381l-1799 0c-72,167 -191,312 -344,425l-177 358c-79,-48 -152,-100 -218,-158 -224,71 -476,92 -734,49 -383,-64 -659,-254 -819,-507 -163,253 -445,442 -829,507 -361,60 -711,-4 -987,-157 -303,165 -661,248 -1071,248 -494,0 -904,-112 -1231,-336 -84,-58 -157,-118 -220,-181l-7 9c-134,169 -309,298 -521,387 -214,88 -465,133 -751,133 -307,0 -581,-49 -822,-146 -241,-97 -432,-235 -572,-415 -140,-180 -210,-373 -210,-581 0,-285 129,-533 388,-744 758,-619 1916,-439 2522,100 145,-139 331,-252 559,-339 266,-101 553,-152 860,-152 392,0 738,79 1037,235 132,-89 284,-159 451,-204l192 421 0 4c-76,24 -147,59 -209,103 155,171 232,365 232,580 0,162 -44,311 -131,448 100,49 214,76 336,76 386,0 699,-277 699,-620 0,-35 -4,-70 -10,-103l580 0c-6,33 -10,68 -10,103 0,343 313,620 698,620 78,0 153,-11 223,-32 -41,-110 -63,-227 -63,-348 0,-265 107,-511 290,-715 -101,-76 -226,-126 -363,-141l0 -17 201 -410c222,41 422,125 589,238 280,-149 622,-238 992,-238zm1283 1175c-83,-405 -626,-717 -1283,-717 -239,0 -462,41 -654,113 123,181 189,389 179,604l1758 0zm-2462 -232c-52,72 -88,150 -104,232l97 0c10,-43 16,-87 16,-132 0,-34 -4,-68 -9,-100zm-3854 751c-84,-115 -144,-246 -171,-388 -49,-258 15,-513 162,-731 -197,-115 -431,-172 -701,-172 -303,0 -558,69 -764,208 -207,139 -310,315 -310,529 0,238 129,427 390,566 202,108 434,163 696,163 269,0 502,-59 698,-175z"/>
   </g>
  </g>
 </g>
</svg>
